<svg xmlns="http://www.w3.org/2000/svg" width="110" height="111" viewBox="0 0 110 111">
    <g fill="none" fill-rule="evenodd">
        <g fill="#033568" fill-rule="nonzero">
            <g>
                <g>
                    <g>
                        <path d="M87.404 65.037l-.11-.112c-.84-.84-2.2-.84-3.039 0s-.839 2.204 0 3.044l.08.081c.42.43.978.646 1.535.646.542 0 1.085-.205 1.504-.616.846-.832.86-2.194.03-3.043z" transform="translate(-422 -647) translate(270 502) translate(0 33) translate(152 112)"/>
                        <path d="M91.882 74.712c-.11-1.184-1.157-2.056-2.337-1.945-1.182.11-2.051 1.158-1.941 2.342.319 3.456-.901 6.844-3.349 9.296-4.523 4.531-11.884 4.531-16.407 0-2.191-2.195-3.398-5.114-3.398-8.218s1.207-6.023 3.398-8.218c2.191-2.195 5.105-3.404 8.203-3.404 1.187 0 2.149-.963 2.149-2.152 0-1.188-.962-2.152-2.149-2.152-4.246 0-8.239 1.656-11.241 4.665-3.003 3.008-4.657 7.007-4.657 11.261s1.654 8.254 4.657 11.262c3.1 3.104 7.17 4.657 11.241 4.657 4.072 0 8.143-1.553 11.242-4.657 3.354-3.36 5.027-8.002 4.589-12.737z" transform="translate(-422 -647) translate(270 502) translate(0 33) translate(152 112)"/>
                        <path d="M107.849 68.338h-4.457c-.592-2.08-1.417-4.077-2.466-5.968l3.15-3.156c.84-.84.84-2.203 0-3.043l-8.043-8.058c-.839-.84-2.199-.84-3.038 0l-3.15 3.156c-1.888-1.05-3.882-1.877-5.958-2.47v-4.464c0-1.189-.962-2.152-2.148-2.152H70.364c-1.186 0-2.148.963-2.148 2.152v4.473c-2.072.595-4.062 1.422-5.946 2.473l-3.162-3.167c-.839-.84-2.199-.84-3.038 0l-8.043 8.057c-.84.84-.84 2.203 0 3.044l3.171 3.177c-1.043 1.885-1.865 3.875-2.454 5.946h-4.49c-1.186 0-2.148.964-2.148 2.152v11.394c0 1.189.962 2.152 2.148 2.152h4.499c.591 2.068 1.413 4.054 2.457 5.935l-3.183 3.189c-.84.84-.84 2.203 0 3.043l8.043 8.058c.84.84 2.2.84 3.038 0l3.183-3.189c1.879 1.045 3.86 1.869 5.925 2.461v4.506c0 1.189.962 2.152 2.148 2.152H81.74c1.186 0 2.148-.963 2.148-2.152v-4.497c2.068-.59 4.054-1.413 5.936-2.459l3.171 3.177c.84.84 2.2.84 3.039 0l8.043-8.057c.84-.84.84-2.203 0-3.044l-3.162-3.167c1.05-1.887 1.875-3.88 2.469-5.956h4.465c1.187 0 2.149-.964 2.149-2.152V70.49c0-1.189-.962-2.152-2.148-2.152zM105.7 79.732h-3.988c-1.007 0-1.88.702-2.097 1.687-.61 2.76-1.691 5.367-3.213 7.75-.543.852-.423 1.968.29 2.682l2.826 2.83-5.004 5.014-2.834-2.838c-.712-.714-1.823-.836-2.673-.294-2.379 1.518-4.98 2.596-7.73 3.202-.985.217-1.687 1.091-1.687 2.102v4.02h-7.077v-4.027c0-1.01-.7-1.884-1.684-2.102-2.747-.61-5.344-1.688-7.72-3.206-.848-.543-1.961-.422-2.674.292l-2.846 2.85-5.004-5.013 2.845-2.85c.713-.714.835-1.829.292-2.68-1.516-2.38-2.593-4.98-3.2-7.732-.219-.986-1.091-1.687-2.099-1.687h-4.02v-7.09h4.013c1.009 0 1.882-.703 2.099-1.69.605-2.755 1.68-5.36 3.195-7.743.542-.851.42-1.965-.292-2.678l-2.833-2.838 5.004-5.014 2.826 2.83c.713.715 1.827.836 2.677.292 2.378-1.524 4.981-2.607 7.737-3.218.983-.219 1.684-1.092 1.684-2.102v-3.994h7.077v3.987c0 1.01.702 1.885 1.687 2.102 2.759.609 5.366 1.69 7.748 3.214.85.543 1.963.422 2.675-.292l2.814-2.819 5.004 5.014-2.813 2.818c-.713.714-.834 1.829-.292 2.68 1.522 2.387 2.601 4.998 3.208 7.762.217.986 1.09 1.69 2.098 1.69h3.981v7.09zM28.578 15.28c-7.345 0-13.32 5.986-13.32 13.344s5.975 13.343 13.32 13.343c7.345 0 13.32-5.985 13.32-13.343S35.922 15.28 28.578 15.28zm0 22.383c-4.976 0-9.024-4.055-9.024-9.039s4.048-9.04 9.024-9.04c4.975 0 9.023 4.056 9.023 9.04 0 4.984-4.048 9.04-9.023 9.04z" transform="translate(-422 -647) translate(270 502) translate(0 33) translate(152 112)"/>
                        <path d="M55.003 21.737h-3.43c-.468-1.572-1.094-3.088-1.874-4.532l2.426-2.43c.403-.403.63-.95.63-1.521s-.227-1.119-.63-1.522l-6.684-6.696c-.84-.84-2.2-.84-3.039 0l-2.426 2.43c-1.441-.78-2.954-1.408-4.524-1.876V2.152C35.452.964 34.49 0 33.304 0h-9.453c-1.186 0-2.149.964-2.149 2.152v3.446c-1.566.469-3.075 1.097-4.514 1.877l-2.435-2.44c-.838-.84-2.198-.84-3.038 0L5.03 11.733c-.402.403-.629.95-.629 1.522 0 .57.227 1.118.63 1.521l2.443 2.448c-.775 1.439-1.398 2.948-1.864 4.514H2.152c-1.186 0-2.149.964-2.149 2.152v9.47c0 1.188.963 2.152 2.149 2.152h3.466c.467 1.563 1.09 3.069 1.865 4.504L5.03 42.473c-.402.403-.629.95-.629 1.521s.227 1.119.63 1.522l6.684 6.696c.839.84 2.199.84 3.038 0l2.453-2.457c1.433.776 2.937 1.4 4.497 1.868v3.473c0 1.188.962 2.152 2.148 2.152h9.453c1.187 0 2.149-.964 2.149-2.152V51.63c1.562-.466 3.07-1.09 4.506-1.867l2.443 2.448c.84.84 2.2.84 3.039 0l6.684-6.696c.403-.403.63-.95.63-1.521s-.227-1.118-.63-1.522l-2.435-2.44c.779-1.44 1.406-2.953 1.874-4.522h3.44c1.186 0 2.148-.964 2.148-2.152v-9.47c0-1.188-.962-2.152-2.149-2.152zm-2.147 9.47h-2.951c-1.008 0-1.88.702-2.098 1.687-.498 2.251-1.38 4.38-2.621 6.324-.544.851-.423 1.967.29 2.682l2.092 2.095-3.646 3.652-2.098-2.102c-.713-.714-1.825-.836-2.674-.293-1.941 1.238-4.063 2.117-6.307 2.612-.986.217-1.687 1.091-1.687 2.102v2.978H26V49.96c0-1.01-.7-1.883-1.684-2.101-2.242-.498-4.36-1.378-6.298-2.617-.85-.543-1.963-.422-2.675.292l-2.109 2.113-3.646-3.653 2.109-2.112c.712-.714.834-1.829.291-2.68-1.237-1.94-2.115-4.063-2.612-6.309-.217-.985-1.09-1.686-2.097-1.686H4.3V26.04h2.973c1.008 0 1.881-.703 2.098-1.69.494-2.248 1.372-4.373 2.608-6.317.541-.851.42-1.965-.293-2.679l-2.098-2.101L13.234 9.6l2.092 2.095c.713.715 1.827.836 2.677.292 1.941-1.244 4.065-2.128 6.313-2.626C25.3 9.144 26 8.27 26 7.261V4.304h5.156v2.95c0 1.011.702 1.886 1.687 2.103 2.25.496 4.377 1.378 6.322 2.622.85.543 1.963.421 2.675-.292l2.082-2.085 3.646 3.652-2.081 2.085c-.713.714-.835 1.829-.292 2.68 1.241 1.948 2.122 4.079 2.617 6.333.217.987 1.09 1.69 2.099 1.69h2.945v5.165zM89.483 10.657c-5.45 0-9.883 4.44-9.883 9.9 0 5.458 4.433 9.9 9.883 9.9 5.449 0 9.882-4.442 9.882-9.9 0-5.46-4.433-9.9-9.882-9.9zm0 15.495c-3.08 0-5.586-2.51-5.586-5.595 0-3.086 2.505-5.596 5.586-5.596 3.08 0 5.586 2.51 5.586 5.596 0 3.085-2.506 5.595-5.586 5.595z" transform="translate(-422 -647) translate(270 502) translate(0 33) translate(152 112)"/>
                        <path d="M108.616 24.167l-1.965-1.137c.118-.82.177-1.648.177-2.473 0-.826-.06-1.653-.177-2.474l1.965-1.137c.494-.285.854-.755 1.001-1.307.148-.551.07-1.138-.214-1.633l-4.297-7.455c-.593-1.03-1.907-1.383-2.935-.788l-1.97 1.139c-1.3-1.024-2.743-1.86-4.273-2.476V2.152C95.928.964 94.966 0 93.78 0h-8.594c-1.187 0-2.149.964-2.149 2.152v2.274c-1.53.615-2.973 1.452-4.274 2.476l-1.969-1.14c-.493-.285-1.08-.362-1.63-.214-.55.148-1.02.508-1.304 1.002l-4.297 7.456c-.594 1.03-.242 2.345.786 2.94l1.966 1.137c-.118.82-.178 1.648-.178 2.473s.06 1.653.178 2.474l-1.966 1.137c-1.028.595-1.38 1.91-.786 2.94l4.297 7.455c.285.495.754.856 1.304 1.003.55.148 1.137.07 1.63-.215l1.97-1.139c1.3 1.024 2.743 1.86 4.273 2.476v2.274c0 1.188.962 2.152 2.149 2.152h8.594c1.186 0 2.148-.964 2.148-2.152v-2.274c1.53-.615 2.974-1.452 4.274-2.476l1.97 1.14c1.027.594 2.34.24 2.934-.789l4.297-7.455c.285-.494.362-1.082.214-1.633-.147-.552-.507-1.021-1-1.307zm-6.45-6.68c.242 1.01.365 2.042.365 3.07 0 1.027-.123 2.06-.365 3.07-.223.926.19 1.89 1.014 2.367l1.427.825-2.148 3.727-1.43-.827c-.826-.477-1.866-.353-2.556.305-1.497 1.428-3.33 2.49-5.3 3.07-.914.27-1.542 1.11-1.542 2.065v1.65h-4.297v-1.65c0-.955-.628-1.795-1.542-2.065-1.97-.58-3.802-1.642-5.3-3.07-.69-.658-1.73-.782-2.555-.305l-1.43.827-2.149-3.727 1.427-.825c.824-.477 1.237-1.44 1.015-2.368-.243-1.01-.366-2.043-.366-3.07 0-1.027.123-2.06.366-3.07.222-.927-.19-1.89-1.015-2.367l-1.427-.825 2.149-3.728 1.43.828c.824.477 1.865.353 2.555-.305 1.498-1.428 3.33-2.49 5.3-3.07.914-.27 1.542-1.11 1.542-2.065v-1.65h4.297v1.65c0 .955.628 1.795 1.542 2.065 1.97.58 3.802 1.642 5.3 3.07.69.658 1.73.782 2.556.305l1.43-.827 2.148 3.727-1.427.825c-.824.477-1.237 1.44-1.014 2.368z" transform="translate(-422 -647) translate(270 502) translate(0 33) translate(152 112)"/>
                    </g>
                </g>
            </g>
        </g>
    </g>
</svg>
