<svg xmlns="http://www.w3.org/2000/svg" width="110" height="108" viewBox="0 0 110 108">
    <g fill="none" fill-rule="evenodd">
        <g fill="#033568" fill-rule="nonzero">
            <g>
                <g>
                    <g>
                        <g>
                            <g>
                                <path d="M77.952 41.61c1.183.486 2.563-.208 2.887-1.442.498-1.903.751-3.876.751-5.862 0-1.972-.25-3.933-.743-5.83-.321-1.236-1.704-1.931-2.889-1.445-1.571.647-3.398.02-4.25-1.456-.851-1.477-.479-3.374.867-4.412 1.012-.78 1.108-2.327.2-3.228-2.813-2.793-6.311-4.82-10.116-5.861-1.234-.34-2.524.522-2.691 1.79-.223 1.69-1.677 2.965-3.383 2.965s-3.16-1.275-3.383-2.964c-.167-1.269-1.456-2.13-2.691-1.791-3.804 1.04-7.302 3.068-10.116 5.861-.906.9-.81 2.447.2 3.227 1.346 1.039 1.719 2.936.868 4.413-.852 1.477-2.678 2.102-4.25 1.456-1.184-.486-2.566.209-2.889 1.446-.493 1.895-.743 3.857-.743 5.83 0 1.986.253 3.958.752 5.861.323 1.235 1.703 1.927 2.886 1.443 1.57-.644 3.393-.017 4.243 1.458.848 1.472.48 3.365-.855 4.405-.487.38-.788.951-.825 1.568-.036.617.194 1.22.633 1.656 2.812 2.785 6.305 4.805 10.1 5.843 1.23.335 2.516-.515 2.69-1.78.23-1.679 1.683-2.944 3.38-2.944 1.697 0 3.15 1.265 3.38 2.944.173 1.263 1.46 2.116 2.69 1.78 3.796-1.038 7.289-3.058 10.101-5.843.906-.898.815-2.44-.192-3.224-1.336-1.04-1.703-2.933-.855-4.405.85-1.475 2.675-2.102 4.243-1.458zm-7.957-.689c-1.478 2.564-1.318 5.698.223 8.074-1.445 1.15-3.052 2.08-4.762 2.757-1.284-2.525-3.913-4.232-6.87-4.232-2.958 0-5.587 1.707-6.871 4.232-1.71-.677-3.316-1.607-4.761-2.757 1.54-2.376 1.7-5.51.222-8.074-1.48-2.57-4.276-3.998-7.104-3.845-.134-.913-.202-1.839-.202-2.77 0-.919.066-1.835.198-2.739 2.832.156 5.626-1.273 7.108-3.844 1.485-2.575 1.318-5.717-.235-8.095 1.444-1.15 3.05-2.082 4.76-2.761 1.277 2.54 3.911 4.258 6.884 4.258 2.973 0 5.607-1.718 6.885-4.258 1.71.679 3.316 1.61 4.76 2.76-1.555 2.379-1.72 5.521-.235 8.097 1.482 2.57 4.274 3.997 7.108 3.844.132.904.198 1.82.198 2.739 0 .93-.067 1.857-.202 2.77-2.829-.152-5.623 1.274-7.104 3.844z" transform="translate(-910 -650) translate(270 502) translate(0 33) translate(488) translate(152 115)"/>
                                <path d="M58.585 24.996c-5.124 0-9.294 4.177-9.294 9.31 0 5.134 4.17 9.31 9.294 9.31 5.125 0 9.294-4.176 9.294-9.31 0-5.133-4.17-9.31-9.294-9.31zm0 14.324c-2.76 0-5.005-2.25-5.005-5.014 0-2.765 2.245-5.014 5.005-5.014s5.006 2.25 5.006 5.014c0 2.765-2.246 5.014-5.006 5.014zM109.589 89.436c-1.05-5.063-6.195-8.378-11.238-7.222l-21.463 4.923c-3.868.887-7.858.698-11.607-.54 1.462-1.029 2.665-2.475 3.418-4.256 2.098-4.916-.115-10.742-5.093-12.805L41.744 60.47c-.26-.108-.539-.163-.82-.163H20.52V57.39c0-1.17-.977-2.148-2.144-2.148H2.144C.96 55.242 0 56.204 0 57.39v37.757c0 1.186.96 2.148 2.144 2.148h16.231c1.184 0 2.145-.962 2.145-2.148v-2.042h8.472c1.184 0 2.144-.962 2.144-2.148 0-1.186-.96-2.148-2.144-2.148H20.52V64.603h19.977l21.469 8.902c2.801 1.161 3.971 4.42 2.783 7.16-1.137 2.691-4.083 4.027-6.801 3.136l-14.62-5.63c-1.105-.426-2.346.127-2.77 1.234-.426 1.107.126 2.35 1.231 2.776 0 0 8.135 3.133 14.338 5.53.124.047.248.092.372.135l6.24 2.403c4.834 1.862 10.057 2.233 15.105 1.076l21.464-4.923c2.728-.626 5.513 1.168 6.081 3.908.553 2.663-1.076 5.273-3.706 5.943l-25.61 6.52c-4.42 1.125-9.002.838-13.248-.83l-15.157-5.955c-1.103-.434-2.347.11-2.78 1.215-.432 1.104.111 2.35 1.214 2.784l15.157 5.956c3.052 1.198 6.247 1.802 9.458 1.802 2.143 0 4.293-.269 6.412-.809l25.61-6.52c4.862-1.237 7.87-6.06 6.85-10.98zM4.289 93V59.538H16.23v33.461H4.288z" transform="translate(-910 -650) translate(270 502) translate(0 33) translate(488) translate(152 115)"/>
                                <path d="M20.657 43.516l6.045 3.568c.958.566 2.23.282 2.858-.636l3.994-5.84c.67-.979.42-2.315-.557-2.986-.976-.67-2.311-.42-2.98.558l-1.279 1.868c-1.07-5.76-.442-11.758 1.843-17.203C37.013 7.521 54.691.295 69.99 6.738 77.4 9.86 83.154 15.685 86.19 23.141c3.037 7.456 2.994 15.65-.122 23.074-1.55 3.694-3.768 6.981-6.592 9.772-.843.833-.853 2.193-.02 3.037.819.833 2.2.842 3.032.021 3.228-3.19 5.763-6.946 7.533-11.165 3.56-8.481 3.61-17.843.14-26.362-3.47-8.519-10.043-15.174-18.51-18.74-17.478-7.36-37.676.894-45.024 18.402-2.607 6.212-3.325 13.055-2.11 19.628l-1.683-.993c-1.021-.603-2.335-.263-2.936.76-.601 1.021-.262 2.338.758 2.94zM75.134 61.262c-.647-.974-2.001-1.24-2.971-.593-.972.648-1.24 2.006-.595 2.98.647.974 2.006 1.239 2.974.592.979-.652 1.232-2.001.592-2.979z" transform="translate(-910 -650) translate(270 502) translate(0 33) translate(488) translate(152 115)"/>
                            </g>
                            <path d="M39.509 93.196c-.647-.974-2.002-1.24-2.972-.593-.971.648-1.24 2.006-.594 2.98.646.974 2.005 1.238 2.974.592.978-.653 1.231-2.001.592-2.979z" transform="translate(-910 -650) translate(270 502) translate(0 33) translate(488) translate(152 115)"/>
                        </g>
                    </g>
                </g>
            </g>
        </g>
    </g>
</svg>
