<svg xmlns="http://www.w3.org/2000/svg" width="110" height="111" viewBox="0 0 110 111">
    <g fill="none" fill-rule="evenodd">
        <g fill="#033568" fill-rule="nonzero">
            <g>
                <g>
                    <g>
                        <g>
                            <path d="M92.258 103.082L95.806 103.082 95.806 106.637 92.258 106.637z" transform="translate(-422 -1040) translate(270 502) translate(0 33) translate(0 393) translate(152 112)"/>
                            <path d="M85.507 90.641L92.258 90.641 92.258 99.528 95.806 99.528 95.806 87.087 91.912 87.087 97.581 78 103.249 87.087 99.355 87.087 99.355 110.191 102.903 110.191 102.903 90.641 109.654 90.641 97.581 71.292zM74.516 74.646L78.065 74.646 78.065 78.2 74.516 78.2z" transform="translate(-422 -1040) translate(270 502) translate(0 33) translate(0 393) translate(152 112)"/>
                            <path d="M78.065 81.755L74.516 81.755 74.516 94.196 78.41 94.196 72.742 103.283 67.073 94.196 70.968 94.196 70.968 71.091 67.419 71.091 67.419 90.641 60.669 90.641 72.742 109.991 84.815 90.641 78.065 90.641z" transform="translate(-422 -1040) translate(270 502) translate(0 33) translate(0 393) translate(152 112)"/>
                            <path d="M101.129 0H26.613c-4.892 0-8.871 3.986-8.871 8.886v24.147l-7.436 7.45C5.95 44.846 3.548 50.65 3.55 56.82l.004 32.043H0v21.327h39.032V88.864h-3.548V84.7c0-1.404.568-2.776 1.56-3.77l13.37-13.393h50.715c4.891 0 8.871-3.987 8.871-8.887V8.886c0-4.9-3.98-8.886-8.871-8.886zM35.484 106.637H3.548V92.419h31.936v14.218zm12.877-42.07l-13.826 13.85c-1.675 1.678-2.6 3.91-2.6 6.283v4.164H7.102L7.1 56.821c-.002-5.221 2.03-10.132 5.716-13.825l4.927-4.937V58.65c0 4.9 3.98 8.887 8.87 8.887 2.712 0 5.341-.974 7.398-2.74l7.964-6.838c.812-.7 1.852-1.084 2.926-1.084h.278c2.48-.002 4.5 2.02 4.5 4.505 0 1.203-.469 2.336-1.317 3.187zM67.419 39.1v17.773h-7.096V39.1h7.096zm3.549 0h7.097v17.773h-7.097V39.1zm10.645 0h7.097v17.773h-7.097V39.1zm10.645 0h7.097v17.773h-7.097V39.1zm7.097-10.663h-7.097V10.664h7.097v17.773zm-10.645 0h-7.097V10.664h7.097v17.773zm-10.645 0h-7.097V10.664h7.097v17.773zm-10.646 0h-7.096V10.664h7.096v17.773zm-10.645 0h-7.097V10.664h7.097v17.773zm-10.645 0h-7.097V10.664h7.097v17.773zm-10.645 0h-7.097V10.664h7.097v17.773zm-7.097 3.554h70.968v3.555H28.387V31.99zM45.18 53.318H44.9c-1.92 0-3.78.69-5.235 1.941l-.634.542v-16.7h7.097v14.313c-.316-.037-.624-.096-.95-.096zM28.387 39.1h7.097v17.773h-7.097V39.1zm21.29 15.6V39.1h7.097v17.773h-4.927c-.578-.857-1.314-1.594-2.17-2.174zm56.775 3.95c0 2.94-2.388 5.332-5.323 5.332H52.8c.28-.826.426-1.702.426-2.602 0-.325-.059-.636-.096-.952h46.225c1.957 0 3.548-1.595 3.548-3.555v-46.21c0-1.96-1.591-3.554-3.548-3.554H28.387c-1.957 0-3.548 1.594-3.548 3.555v46.209c0 1.96 1.591 3.555 3.548 3.555h5.257L31.7 62.096c-1.416 1.216-3.22 1.886-5.087 1.886-2.935 0-5.323-2.392-5.323-5.332V8.886c0-2.94 2.388-5.331 5.323-5.331h74.516c2.935 0 5.323 2.392 5.323 5.331V58.65z" transform="translate(-422 -1040) translate(270 502) translate(0 33) translate(0 393) translate(152 112)"/>
                        </g>
                    </g>
                </g>
            </g>
        </g>
    </g>
</svg>
