<svg xmlns="http://www.w3.org/2000/svg" width="110" height="92" viewBox="0 0 110 92">
    <g fill="none" fill-rule="evenodd">
        <g fill="#033568" fill-rule="nonzero">
            <g>
                <g>
                    <g>
                        <g>
                            <path d="M20.376 57.92h-1.583V36.661c0-.899-.254-1.776-.735-2.536l-2.31-3.654c-.873-1.38-2.367-2.203-3.997-2.203s-3.124.823-3.996 2.203l-2.312 3.654c-.48.76-.734 1.637-.734 2.536v6.652c0 .89.72 1.611 1.608 1.611.888 0 1.608-.721 1.608-1.61v-6.653c0-.287.082-.568.235-.811l2.311-3.655c.403-.636 1.029-.705 1.28-.705.25 0 .876.069 1.279.705l2.311 3.655c.154.243.235.524.235.811V57.92h-7.65v-7.087c0-.89-.72-1.611-1.609-1.611-.888 0-1.608.721-1.608 1.611v7.087H3.126C1.402 57.92 0 59.324 0 61.051v3.419C0 66.197 1.402 67.6 3.126 67.6h3.395V79.13c-1.126 1.25-1.812 2.905-1.812 4.717 0 3.89 3.16 7.054 7.042 7.054 3.883 0 7.042-3.164 7.042-7.054 0-1.812-.686-3.466-1.81-4.716V67.6h3.393c1.723 0 3.126-1.404 3.126-3.131v-3.42c0-1.726-1.403-3.13-3.126-3.13zm-6.61 19.168c-.639-.192-1.315-.296-2.015-.296-.7 0-1.375.104-2.014.295v-9.486h4.03v9.487zm-2.015 10.59c-2.11 0-3.825-1.719-3.825-3.832 0-2.113 1.716-3.832 3.825-3.832 2.11 0 3.825 1.719 3.825 3.832 0 2.113-1.716 3.832-3.825 3.832zm8.534-23.299H3.216v-3.238h17.07v3.238zM109.665 46.592c-.271-1.14-.969-2.104-1.964-2.717-1.933-1.19-4.494-.684-5.83 1.155l-3.8 5.226c-.356.49-.93.783-1.533.783H92.67l-.105-.195 6.12-37.903c.262-1.62-.382-3.245-1.682-4.244l-9.9-7.604c-1.593-1.223-3.817-1.222-5.407 0l-9.9 7.604c-1.298.997-1.943 2.622-1.683 4.242l2.092 12.957c.142.878.969 1.477 1.845 1.333.877-.142 1.473-.97 1.33-1.848l-.682-4.226 8.954-6.878c.44-.338 1.054-.338 1.494 0l8.954 6.877-4.294 26.604c-1.528-1.09-3.393-1.733-5.406-1.733-2.015 0-3.88.644-5.408 1.734l-2.406-14.913c-.142-.879-.967-1.475-1.844-1.334-.877.142-1.473.97-1.331 1.848l2.821 17.486c-.035.064-.07.128-.103.193h-3.869c-.604 0-1.177-.292-1.532-.781l-3.8-5.229c-1.337-1.838-3.898-2.344-5.83-1.155-.996.613-1.695 1.579-1.966 2.719-.271 1.139-.084 2.315.528 3.313l5.241 8.538c1.483 2.416 4.163 3.916 6.994 3.916h6.253v17.608c-2.704.333-4.805 2.647-4.805 5.444 0 3.026 2.458 5.488 5.478 5.488h11.156c3.02 0 5.478-2.462 5.478-5.488 0-2.797-2.102-5.111-4.806-5.444V62.36h6.255c2.829 0 5.509-1.5 6.994-3.916l5.24-8.538c.613-.998.8-2.174.528-3.314zM81.364 79.924v-15.69c.952.328 1.972.51 3.034.51 1.062 0 2.082-.181 3.034-.51v15.69h-6.068zm5.738-68.204c-1.592-1.222-3.815-1.222-5.407 0l-7.581 5.823-.827-5.116c-.071-.448.107-.897.465-1.173l9.901-7.605c.439-.337 1.052-.336 1.492.001l9.9 7.604c.358.275.536.723.463 1.17l-.826 5.118-7.58-5.822zm-2.703 37.527c3.378 0 6.126 2.753 6.126 6.137 0 3.384-2.748 6.137-6.126 6.137-3.379 0-6.127-2.753-6.127-6.137 0-3.384 2.748-6.137 6.127-6.137zm-16.759 7.51l-5.24-8.538c-.163-.264-.212-.577-.14-.879.072-.302.256-.557.521-.72.512-.316 1.192-.181 1.546.306l3.799 5.228c.958 1.319 2.503 2.107 4.133 2.107h2.866c-.207 1.725.063 3.387.718 4.878h-3.948c-1.723 0-3.353-.913-4.255-2.382zm24.598 28.656c0 1.249-1.015 2.265-2.262 2.265H78.82c-1.246 0-2.261-1.016-2.261-2.265 0-1.25 1.014-2.266 2.261-2.266h11.156c1.247 0 2.262 1.016 2.262 2.266zm14.16-37.194l-5.24 8.537c-.904 1.47-2.534 2.383-4.255 2.383h-3.949c.505-1.15.787-2.42.787-3.755 0-.38-.025-.755-.07-1.123h2.868c1.626 0 3.171-.787 4.132-2.107l3.8-5.228c.354-.487 1.033-.622 1.546-.306.263.162.448.418.52.72.072.303.023.615-.14.879z" transform="translate(-910 -1059) translate(270 502) translate(0 33) translate(488 393) translate(152 131)"/>
                            <path d="M63.209 38.075c.582-1.296.36-2.762-.581-3.825L52.156 22.412c-.674-.763-1.645-1.2-2.662-1.2s-1.988.437-2.662 1.2L36.36 34.25c-.94 1.063-1.163 2.529-.58 3.825.582 1.296 1.824 2.1 3.243 2.1h2.87c-2.39 5.834-7.71 9.997-14.06 10.832-.961.127-1.72.888-1.845 1.852-.127.974.397 1.878 1.303 2.25 2.524 1.039 5.198 1.566 7.947 1.566 5.05 0 9.927-1.828 13.732-5.145 3.412-2.976 5.765-6.967 6.72-11.355h4.276c1.418 0 2.66-.804 3.243-2.1zm-8.858-1.122c-.797 0-1.474.585-1.59 1.374-.62 4.167-2.715 7.993-5.903 10.772-3.22 2.807-7.346 4.354-11.62 4.354-.963 0-1.915-.077-2.85-.228 6.421-2.226 11.444-7.484 13.302-14.232.133-.485.033-1.005-.27-1.405-.305-.4-.778-.635-1.28-.635h-5.117c-.146 0-.25-.067-.31-.2-.06-.134-.042-.257.055-.367l10.471-11.838c.084-.095.185-.114.255-.114s.17.02.255.114l10.47 11.838c.098.11.116.233.056.366-.06.134-.164.201-.31.201h-5.614z" transform="translate(-910 -1059) translate(270 502) translate(0 33) translate(488 393) translate(152 131)"/>
                        </g>
                    </g>
                </g>
            </g>
        </g>
    </g>
</svg>
